<svg width="50" height="37" viewBox="0 0 50 37" fill="none" xmlns="http://www.w3.org/2000/svg">
<path d="M42.8042 22.8124C42.8042 22.7925 42.7879 22.7764 42.768 22.7763C39.6843 22.7582 37.1467 20.4244 37.1467 17.5191V12.1897C37.1467 11.5415 36.5655 11.0014 35.8679 11.0014C35.1704 11.0014 34.5891 11.5415 34.5891 12.1897V17.5551C34.5891 20.4358 32.0704 22.8124 28.9316 22.8124H23.1577C22.4602 22.8124 21.8789 23.3525 21.8789 24.0007C21.8789 24.6489 22.4602 25.189 23.1577 25.189H28.9316C32.0316 25.189 34.5891 27.5296 34.5891 30.4463V35.8117C34.5891 36.4599 35.1704 37 35.8679 37C36.5655 37 37.1467 36.4599 37.1467 35.8117V30.4823C37.1467 27.6016 39.6654 25.225 42.8042 25.225H48.5394C49.2369 25.225 49.8182 24.6849 49.8182 24.0367C49.8182 23.3885 49.2369 22.8484 48.5394 22.8484H42.8402C42.8204 22.8484 42.8042 22.8323 42.8042 22.8124Z" fill="#FAFAF5"/>
<path d="M16.8312 9.75691C16.8312 9.74048 16.8178 9.72717 16.8013 9.72707C14.3213 9.71169 12.2806 7.78399 12.2806 5.38415V0.98164C12.2806 0.4462 11.8131 0 11.2521 0C10.691 0 10.2234 0.4462 10.2234 0.98164V5.41389C10.2234 7.79363 8.19747 9.75691 5.67278 9.75691H1.02863C0.467588 9.75691 0 10.2031 0 10.7385C0 11.274 0.467588 11.7202 1.02863 11.7202H5.67278C8.1663 11.7202 10.2234 13.6537 10.2234 16.0632V20.4955C10.2234 21.0309 10.691 21.4771 11.2521 21.4771C11.8131 21.4771 12.2806 21.0309 12.2806 20.4955V16.0929C12.2806 13.7132 14.3065 11.7499 16.8312 11.7499H21.4443C22.0053 11.7499 22.4729 11.3037 22.4729 10.7683C22.4729 10.2329 22.0053 9.78665 21.4443 9.78665H16.861C16.8446 9.78665 16.8312 9.77334 16.8312 9.75691Z" fill="#FAFAF5"/>
</svg>
